# xmcd
#
# Track frame offsets: 
#        150
#        23127
#        58279
#        66917
#        86161
#        102207
#        134253
#        158459
#        179158
#        182553
#        217535
#        231569
#        236548
#        254250
#        272204
#        288719
#
# Disc length: 4189 seconds
#
# Revision: 0
# Processed by: cddbd v1.5.2PL0 Copyright (c) Steve Scherf et al.
# Submitted via: ExactAudioCopyFreeDBPlugin 1.0
#
DISCID=ec105b10
DTITLE=Phill Wiggins and The Chesapeake Sheiks - Live! At Montpelier
DYEAR=2014
DGENRE=Blues
TTITLE0=Struttin' With Some Barbecue
TTITLE1=Roberta
TTITLE2=No Fools Intro
TTITLE3=No Fools No Fun
TTITLE4=Iffy Effy
TTITLE5=Do Nothin' Till You Hear From Me
TTITLE6=Rosetta
TTITLE7=Lulu's Back In Town
TTITLE8=Don't Let The Sun Intro
TTITLE9=Don't Let The Sun Catch ou Cryin'
TTITLE10=Let The Mermaids Flirt With Me
TTITLE11=Guitar Rag
TTITLE12=Tell That Woman
TTITLE13=Don't Let The Music Die
TTITLE14=Frim Fram Sauce
TTITLE15=Do You Call That A Buddy
EXTD=
EXTT0=
EXTT1=
EXTT2=
EXTT3=
EXTT4=
EXTT5=
EXTT6=
EXTT7=
EXTT8=
EXTT9=
EXTT10=
EXTT11=
EXTT12=
EXTT13=
EXTT14=
EXTT15=
PLAYORDER=
